Coordinates
version=1
nRows=29
nColumns=24
inDegrees=yes

Units are S.I. units (second, meters, Newtons, ...)
Angles are in degrees.

endheader
time	pelvis_tilt	pelvis_list	pelvis_rotation	pelvis_tx	pelvis_ty	pelvis_tz	hip_flexion_r	hip_adduction_r	hip_rotation_r	knee_angle_r	ankle_angle_r	subtalar_angle_r	mtp_angle_r	hip_flexion_l	hip_adduction_l	hip_rotation_l	knee_angle_l	ankle_angle_l	subtalar_angle_l	mtp_angle_l	lumbar_extension	lumbar_bending	lumbar_rotation
      1.04983333	      0.21290078	      1.18535029	      1.56047158	     -0.14535902	      0.98298195	      0.32852111	    -22.50875352	      2.24253381	     -5.49464225	      1.02923166	     14.95030936	     -2.58623605	     -4.58695074	     21.26097454	      3.47000787	      4.33885029	      3.67493132	     -1.28690801	     -7.55914097	     -3.15827929	    -12.57227260	      4.17050498	      5.33328409
      1.05400000	      0.26367596	      1.31491131	      1.51329559	     -0.13941461	      0.98227294	      0.32831993	    -22.65916356	      2.04915248	     -5.65728031	      0.46271394	     15.15823756	     -2.25984249	     -4.44997448	     21.19618065	      3.66448986	      4.48888302	      3.61237923	     -1.27154083	     -7.71111303	     -3.08056076	    -12.61133346	      3.98449992	      5.34100718
      1.05816667	      0.29821142	      1.45956055	      1.47436382	     -0.13343912	      0.98158208	      0.32807760	    -22.78067702	      1.83693460	     -5.80773402	     -0.13074268	     15.34638841	     -1.97319029	     -4.31151170	     21.16248528	      3.88218773	      4.65789288	      3.44335461	     -1.28627858	     -7.90920257	     -3.00888750	    -12.63946312	      3.79455606	      5.34010194
      1.06233333	      0.35654609	      1.61811845	      1.43991475	     -0.12742824	      0.98097405	      0.32782597	    -22.90155764	      1.60823238	     -6.00884616	     -0.78207700	     15.52146507	     -1.61991452	     -4.13650674	     21.11175710	      4.11763529	      4.82777837	      3.18387153	     -1.36798119	     -8.18233784	     -2.92471719	    -12.67353556	      3.57669467	      5.32842900
      1.06650000	      0.39342302	      1.78718125	      1.41421328	     -0.12139014	      0.98037835	      0.32754992	    -22.98797159	      1.36754447	     -6.18331623	     -1.45848019	     15.67177808	     -1.32252437	     -3.94254425	     21.09701526	      4.37019047	      5.01245565	      2.83070425	     -1.49495932	     -8.50209437	     -2.83738343	    -12.68758813	      3.35585938	      5.29979687
      1.07066667	      0.43944393	      1.96838466	      1.39883113	     -0.11532084	      0.97983452	      0.32724911	    -23.07103706	      1.11480257	     -6.36778660	     -2.16424770	     15.79364908	     -1.02917994	     -3.71462583	     21.08374415	      4.64137603	      5.20125324	      2.39153155	     -1.66843522	     -8.86875084	     -2.73929834	    -12.70998114	      3.12347912	      5.25855031
      1.07483333	      0.46380925	      2.15184721	      1.38813364	     -0.10922927	      0.97930762	      0.32692524	    -23.11471714	      0.85718321	     -6.53127651	     -2.90246535	     15.88054888	     -0.78107299	     -3.46170302	     21.10534471	      4.92020626	      5.39305211	      1.87514008	     -1.89990004	     -9.27830766	     -2.63732439	    -12.70419513	      2.88533481	      5.20531400
      1.07900000	      0.48264346	      2.34632325	      1.38749198	     -0.10310294	      0.97881563	      0.32658218	    -23.13814271	      0.58961069	     -6.69229445	     -3.67390307	     15.93227179	     -0.55817357	     -3.17707514	     21.14288161	      5.21556685	      5.57725828	      1.28864731	     -2.17849485	     -9.72515352	     -2.53006474	    -12.68520428	      2.63997416	      5.14132252
      1.08316667	      0.50036286	      2.54315550	      1.39533895	     -0.09695943	      0.97836356	      0.32621863	    -23.14674384	      0.32064254	     -6.84486641	     -4.47090232	     15.93930077	     -0.36960161	     -2.85306702	     21.19230468	      5.51893376	      5.75888498	      0.63944511	     -2.50793383	    -10.20292902	     -2.41761407	    -12.66473470	      2.39150671	      5.06228841
      1.08733333	      0.49840399	      2.73715906	      1.41097740	     -0.09079706	      0.97792845	      0.32583050	    -23.11724106	      0.05504366	     -6.97454479	     -5.30034551	     15.89788928	     -0.23191291	     -2.47990158	     21.27499195	      5.82481646	      5.93814619	     -0.07090068	     -2.87248101	    -10.70671877	     -2.30047180	    -12.61906511	      2.14955946	      4.97501352
      1.09150000	      0.50032342	      2.93447601	      1.43325339	     -0.08461121	      0.97754435	      0.32543311	    -23.07846291	     -0.21134090	     -7.08848144	     -6.15467502	     15.80272427	     -0.14438894	     -2.08026862	     21.35953525	      6.13631384	      6.09743337	     -0.82381025	     -3.28897801	    -11.22576829	     -2.19123499	    -12.57365522	      1.90126933	      4.87541788
      1.09566667	      0.48626327	      3.12417723	      1.46546491	     -0.07841500	      0.97718321	      0.32501489	    -23.00315401	     -0.46737869	     -7.18516780	     -7.04359129	     15.65475621	     -0.09924525	     -1.60868162	     21.47174019	      6.44535018	      6.25976787	     -1.62377763	     -3.72234466	    -11.76451440	     -2.07956599	    -12.51056584	      1.66446610	      4.77083731
      1.09983333	      0.46385900	      3.31168413	      1.50174489	     -0.07220286	      0.97685958	      0.32458542	    -22.90132185	     -0.71956014	     -7.25696110	     -7.96208860	     15.44538165	     -0.11777300	     -1.06628615	     21.59799845	      6.75400626	      6.40984501	     -2.45464735	     -4.18708629	    -12.31156142	     -1.97355491	    -12.43378492	      1.42877602	      4.65494679
      1.10400000	      0.51542576	      3.51328094	      1.53938593	     -0.06597544	      0.97667456	      0.32416950	    -22.88435250	     -0.97499066	     -7.29410038	     -8.84798384	     15.05460813	     -0.36928229	      5.91959709	     21.64986729	      7.07427537	      6.51757955	     -3.31664727	     -4.61872785	    -12.80742890	     -0.84479989	    -12.46654031	      1.16046549	      4.58010448
      1.10816667	      0.48024772	      3.71175018	      1.59286546	     -0.05969186	      0.97643184	      0.32373112	    -22.75199143	     -1.22633636	     -7.33601509	     -9.78856617	     14.67065473	     -0.48873348	      5.95535726	     21.81539907	      7.39442260	      6.55635079	     -4.24334106	     -4.98849241	    -13.13960283	     -0.86464997	    -12.36238735	      0.89146351	      4.45129559
      1.11233333	      0.42459637	      3.85182987	      1.64336017	     -0.05349165	      0.97620305	      0.32324833	    -22.52552404	     -1.42944153	     -7.36342734	    -10.85860391	     14.31198985	     -0.59538381	      6.07975133	     21.99397708	      7.66144371	      6.70357229	     -5.15084403	     -5.45591705	    -13.68926477	     -0.90090648	    -12.24357582	      0.73562137	      4.31030319
      1.11650000	      0.39788040	      4.01653059	      1.69830903	     -0.04724941	      0.97606043	      0.32277413	    -22.32921362	     -1.64881715	     -7.37516399	    -11.92366636	     13.86908066	     -0.78261751	      6.28323641	     22.13576226	      7.95222409	      6.82535867	     -6.06476059	     -5.88764804	    -14.19851152	     -0.94961941	    -12.16395837	      0.52836437	      4.17484700
      1.12066667	      0.39691372	      4.21137155	      1.75094734	     -0.04096038	      0.97600277	      0.32232015	    -22.15577575	     -1.89327001	     -7.37895466	    -12.99077385	     13.35295377	     -1.02934522	      6.43289684	     22.25438682	      8.26707776	      6.86915995	     -7.00785154	     -6.21285795	    -14.56213821	     -0.98628247	    -12.11544530	      0.25418431	      4.05500285
      1.12483333	      0.38792769	      4.35135447	      1.80323981	     -0.03474147	      0.97597633	      0.32180090	    -21.90633098	     -2.09762648	     -7.41166321	    -14.15936517	     12.70105038	     -1.29555884	     12.13626065	     22.36322165	      8.53553892	      7.02422574	     -7.91365058	     -6.57145108	    -15.08692738	     -2.07739195	    -12.06123781	      0.09400913	      3.95976811
      1.12900000	      0.35446217	      4.49296457	      1.85011206	     -0.02849690	      0.97597385	      0.32133381	    -21.61270928	     -2.29374210	     -7.37061704	    -15.35648023	     12.03993933	     -1.63663935	     12.19871256	     22.50864238	      8.79405519	      7.08565836	     -8.85201753	     -6.83342327	    -15.42772174	     -2.08704758	    -11.96695172	     -0.08402541	      3.79685969
      1.13316667	      0.34211339	      4.63983081	      1.89278485	     -0.02225033	      0.97604345	      0.32086069	    -21.30604628	     -2.49946544	     -7.34795640	    -16.61098874	     11.32476733	     -1.96420806	     12.31962105	     22.61725136	      9.05636417	      7.15303907	     -9.77298065	     -7.04041768	    -15.76486023	     -2.11273101	    -11.90221947	     -0.27409753	      3.66872865
      1.13733333	      0.33415993	      4.77942568	      1.92929188	     -0.01602346	      0.97615711	      0.32037829	    -20.96526339	     -2.70420689	     -7.32795337	    -17.92046487	     10.53965831	     -2.31127002	     12.50760612	     22.71537943	      9.30998850	      7.21902728	    -10.68994690	     -7.18447665	    -16.08360571	     -2.15634258	    -11.84364725	     -0.44660765	      3.54820434
      1.14150000	      0.31998135	      4.89322653	      1.96605498	     -0.00982908	      0.97629855	      0.31989490	    -20.58350297	     -2.88162593	     -7.28486556	    -19.26829161	      9.68918215	     -2.68766975	     12.90799641	     22.83008993	      9.53888924	      7.27443626	    -11.63673026	     -7.26068139	    -16.40921810	     -2.25182233	    -11.78778399	     -0.58889702	      3.41903438
      1.14566667	      0.37396630	      5.02734178	      2.03020888	     -0.00360397	      0.97656953	      0.31937938	    -20.26678390	     -3.07120649	     -7.32650970	    -20.60604153	      8.60832775	     -3.20156142	     18.14076438	     22.85378616	      9.79076636	      7.32297030	    -12.57375618	     -7.07051018	    -16.42996126	     -3.50915274	    -11.80731776	     -0.75440093	      3.26036511
      1.14983333	      0.40007122	      5.20696356	      1.98799184	      0.00260830	      0.97685774	      0.31895964	    -19.82308476	     -3.36901270	     -7.32277414	    -22.12692698	      7.69285836	     -3.46407637	     18.22229366	     22.85116012	     10.05521254	      7.33287175	    -13.36984196	     -7.11585618	    -16.78852483	     -3.52457737	    -11.78456530	     -0.98055740	      3.19885304
      1.15400000	      0.42993953	      5.35100404	      1.98960992	      0.00878465	      0.97717281	      0.31848756	    -19.36969116	     -3.61138715	     -7.33695724	    -23.64202550	      6.63078835	     -3.83426403	     18.35797866	     22.85228434	     10.30015485	      7.38279570	    -14.20132268	     -6.99183237	    -17.02016727	     -3.55626937	    -11.77467184	     -1.15814891	      3.10091645
      1.15816667	      0.48112703	      5.48939270	      1.97699308	      0.01493003	      0.97753755	      0.31803114	    -18.90431954	     -3.86001623	     -7.35540619	    -25.18544983	      5.46026517	     -4.24235738	     22.16005390	     22.83152073	     10.53135368	      7.38871792	    -15.04458654	     -6.72388260	    -17.16123067	     -4.56836354	    -11.79802138	     -1.32941732	      3.02094615
      1.16233333	      0.56826067	      5.67057720	      1.95508097	      0.02108527	      0.97798813	      0.31757768	    -18.45071270	     -4.16522801	     -7.41114966	    -26.77172605	      4.27219557	     -4.55646198	     22.17484895	     22.72778712	     10.80427412	      7.42297430	    -15.80007856	     -6.47456742	    -17.34718760	     -4.56776409	    -11.86630144	     -1.55808085	      2.90754502
      1.16650000	      0.60336183	      5.79251138	      1.92810494	      0.02716456	      0.97838805	      0.31713075	    -17.88961245	     -4.41570845	     -7.43109572	    -28.41139702	      3.00580168	     -5.00687922	     22.24993798	     22.68380275	     11.01072742	      7.42260662	    -16.55719898	     -6.16423958	    -17.47449381	     -4.59017100	    -11.84875253	     -1.68275386	      2.80828311
